<svg width="32" height="32" viewBox="0 0 32 32" fill="none" xmlns="http://www.w3.org/2000/svg">
<path d="M21.3333 24C22.0406 24 22.7189 24.281 23.219 24.781C23.7191 25.2811 24 25.9594 24 26.6667C24 27.3739 23.7191 28.0522 23.219 28.5523C22.7189 29.0524 22.0406 29.3333 21.3333 29.3333C20.6261 29.3333 19.9478 29.0524 19.4477 28.5523C18.9476 28.0522 18.6667 27.3739 18.6667 26.6667C18.6667 25.9594 18.9476 25.2811 19.4477 24.781C19.9478 24.281 20.6261 24 21.3333 24ZM21.3333 25.3333C20.9797 25.3333 20.6406 25.4738 20.3905 25.7239C20.1405 25.9739 20 26.313 20 26.6667C20 27.0203 20.1405 27.3594 20.3905 27.6095C20.6406 27.8595 20.9797 28 21.3333 28C21.687 28 22.0261 27.8595 22.2762 27.6095C22.5262 27.3594 22.6667 27.0203 22.6667 26.6667C22.6667 26.313 22.5262 25.9739 22.2762 25.7239C22.0261 25.4738 21.687 25.3333 21.3333 25.3333ZM9.33334 24C10.0406 24 10.7189 24.281 11.219 24.781C11.7191 25.2811 12 25.9594 12 26.6667C12 27.3739 11.7191 28.0522 11.219 28.5523C10.7189 29.0524 10.0406 29.3333 9.33334 29.3333C8.6261 29.3333 7.94782 29.0524 7.44773 28.5523C6.94763 28.0522 6.66668 27.3739 6.66668 26.6667C6.66668 25.9594 6.94763 25.2811 7.44773 24.781C7.94782 24.281 8.6261 24 9.33334 24ZM9.33334 25.3333C8.97972 25.3333 8.64058 25.4738 8.39053 25.7239C8.14049 25.9739 8.00001 26.313 8.00001 26.6667C8.00001 27.0203 8.14049 27.3594 8.39053 27.6095C8.64058 27.8595 8.97972 28 9.33334 28C9.68697 28 10.0261 27.8595 10.2762 27.6095C10.5262 27.3594 10.6667 27.0203 10.6667 26.6667C10.6667 26.313 10.5262 25.9739 10.2762 25.7239C10.0261 25.4738 9.68697 25.3333 9.33334 25.3333ZM24 8H5.69334L9.09334 16H20C20.44 16 20.8267 15.7867 21.0667 15.4667L25.0667 10.1333C25.24 9.90667 25.3333 9.62667 25.3333 9.33333C25.3333 8.97971 25.1929 8.64057 24.9428 8.39052C24.6928 8.14048 24.3536 8 24 8ZM20 17.3333H9.16001L8.13334 19.4133L8.00001 20C8.00001 20.3536 8.14049 20.6928 8.39053 20.9428C8.64058 21.1929 8.97972 21.3333 9.33334 21.3333H24V22.6667H9.33334C8.6261 22.6667 7.94782 22.3857 7.44773 21.8856C6.94763 21.3855 6.66668 20.7072 6.66668 20C6.66628 19.5476 6.78099 19.1025 7.00001 18.7067L7.96001 16.7467L3.12001 5.33333H1.33334V4H4.00001L5.13334 6.66667H24C24.7073 6.66667 25.3855 6.94762 25.8856 7.44772C26.3857 7.94781 26.6667 8.62609 26.6667 9.33333C26.6667 10 26.44 10.56 26.0667 11.0133L22.1867 16.2C21.7067 16.88 20.9067 17.3333 20 17.3333Z" fill="#FF004D"/>
</svg>
