<svg width="32" height="32" viewBox="0 0 32 32" fill="none" xmlns="http://www.w3.org/2000/svg">
<circle cx="16" cy="16" r="15.5" fill="#2D0010" stroke="#A2536F"/>
<path d="M19.4764 18.9897C20.5051 17.5856 20.9659 15.8449 20.7665 14.1156C20.5671 12.3864 19.7222 10.7962 18.4009 9.66328C17.0796 8.53031 15.3792 7.9381 13.6401 8.00513C11.9009 8.07215 10.2512 8.79346 9.02098 10.0248C7.79074 11.256 7.0707 12.9065 7.00494 14.646C6.93917 16.3854 7.53251 18.0856 8.66626 19.4063C9.80001 20.727 11.3906 21.5708 13.1197 21.769C14.8488 21.9672 16.589 21.5051 17.9921 20.4752H17.991C18.0229 20.5177 18.0569 20.5581 18.0952 20.5974L22.1856 24.6884C22.3849 24.8878 22.6551 24.9999 22.9369 25C23.2188 25.0001 23.4891 24.8882 23.6885 24.689C23.8878 24.4897 23.9999 24.2194 24 23.9376C24.0001 23.6557 23.8882 23.3853 23.689 23.1859L19.5985 19.0949C19.5606 19.0564 19.5197 19.0219 19.4764 18.9897ZM19.7505 14.905C19.7505 15.6725 19.5993 16.4325 19.3057 17.1415C19.012 17.8506 18.5816 18.4949 18.0389 19.0376C17.4963 19.5803 16.8521 20.0108 16.1432 20.3045C15.4342 20.5982 14.6743 20.7493 13.9069 20.7493C13.1396 20.7493 12.3797 20.5982 11.6707 20.3045C10.9618 20.0108 10.3176 19.5803 9.77494 19.0376C9.23232 18.4949 8.80189 17.8506 8.50823 17.1415C8.21456 16.4325 8.06341 15.6725 8.06341 14.905C8.06341 13.355 8.67907 11.8684 9.77494 10.7724C10.8708 9.67638 12.3571 9.06064 13.9069 9.06064C15.4567 9.06064 16.9431 9.67638 18.0389 10.7724C19.1348 11.8684 19.7505 13.355 19.7505 14.905Z" fill="#A1536F"/>
</svg>
