<svg width="50" height="50" viewBox="0 0 50 50" fill="none" xmlns="http://www.w3.org/2000/svg">
<path d="M25 0C20.0555 0 15.222 1.46622 11.1108 4.21326C6.99953 6.96029 3.79521 10.8648 1.90302 15.4329C0.0108317 20.0011 -0.484251 25.0277 0.480379 29.8773C1.44501 34.7268 3.82603 39.1813 7.32234 42.6777C10.8187 46.174 15.2732 48.555 20.1227 49.5196C24.9723 50.4842 29.9989 49.9892 34.5671 48.097C39.1352 46.2048 43.0397 43.0005 45.7867 38.8892C48.5338 34.778 50 29.9445 50 25C49.9927 18.3718 47.3565 12.0172 42.6696 7.33037C37.9828 2.64354 31.6282 0.00727899 25 0ZM26 47.9775V30H33C33.2652 30 33.5196 29.8946 33.7071 29.7071C33.8946 29.5196 34 29.2652 34 29C34 28.7348 33.8946 28.4804 33.7071 28.2929C33.5196 28.1053 33.2652 28 33 28H26V21C26 19.6739 26.5268 18.4021 27.4645 17.4645C28.4022 16.5268 29.6739 16 31 16H35C35.2652 16 35.5196 15.8946 35.7071 15.7071C35.8946 15.5196 36 15.2652 36 15C36 14.7348 35.8946 14.4804 35.7071 14.2929C35.5196 14.1054 35.2652 14 35 14H31C29.1435 14 27.363 14.7375 26.0503 16.0502C24.7375 17.363 24 19.1435 24 21V28H17C16.7348 28 16.4804 28.1053 16.2929 28.2929C16.1054 28.4804 16 28.7348 16 29C16 29.2652 16.1054 29.5196 16.2929 29.7071C16.4804 29.8946 16.7348 30 17 30H24V47.9775C17.9923 47.716 12.326 45.1121 8.2148 40.7236C4.10365 36.3351 1.87469 30.5111 2.00545 24.4991C2.1362 18.4872 4.61627 12.7655 8.91434 8.55992C13.2124 4.35432 18.9866 1.99925 25 1.99925C31.0134 1.99925 36.7876 4.35432 41.0857 8.55992C45.3837 12.7655 47.8638 18.4872 47.9946 24.4991C48.1253 30.5111 45.8964 36.3351 41.7852 40.7236C37.6741 45.1121 32.0077 47.716 26 47.9775Z" fill="#FF004D"/>
</svg>
