<svg width="50" height="50" viewBox="0 0 50 50" fill="none" xmlns="http://www.w3.org/2000/svg">
<path d="M25 0C11.2161 0 0 11.2137 0 25C0 38.7863 11.2161 50 25 50C38.7839 50 50 38.7863 50 25C50 11.2137 38.7839 0 25 0ZM25 48.3348C12.1344 48.3348 1.66823 37.8664 1.66823 25C1.66823 12.1336 12.1344 1.66521 25 1.66521C37.8656 1.66521 48.3318 12.1336 48.3318 25C48.3318 37.8664 37.8656 48.3348 25 48.3348Z" fill="#FF004D"/>
<path d="M31.0506 12.5H19.5213C15.8011 12.5 12.786 15.5157 12.786 19.2353V30.7647C12.786 34.4848 15.8017 37.5 19.5218 37.5H31.0501C34.7703 37.5 37.786 34.4843 37.786 30.7641V19.2353C37.786 15.5152 34.7708 12.5 31.0506 12.5Z" stroke="#FF004D" stroke-miterlimit="10"/>
<path d="M25.286 31.25C28.7378 31.25 31.536 28.4518 31.536 25C31.536 21.5482 28.7378 18.75 25.286 18.75C21.8342 18.75 19.036 21.5482 19.036 25C19.036 28.4518 21.8342 31.25 25.286 31.25Z" stroke="#FF004D" stroke-miterlimit="10"/>
<path d="M32.3172 18.75C32.7487 18.75 33.0985 18.4002 33.0985 17.9688C33.0985 17.5373 32.7487 17.1875 32.3172 17.1875C31.8858 17.1875 31.536 17.5373 31.536 17.9688C31.536 18.4002 31.8858 18.75 32.3172 18.75Z" fill="#FF004D"/>
</svg>
