<svg width="50" height="50" viewBox="0 0 50 50" fill="none" xmlns="http://www.w3.org/2000/svg">
<path d="M37.1482 17.2758C37.3211 16.9556 37.4636 16.62 37.5738 16.2732C37.6248 16.1124 37.6259 15.9398 37.5768 15.7784C37.5277 15.6169 37.4308 15.4742 37.2989 15.3689C37.167 15.2637 37.0063 15.201 36.8379 15.189C36.6696 15.177 36.5016 15.2164 36.3562 15.3018C35.5573 15.7765 34.6925 16.1301 33.7899 16.3512C32.6943 15.3623 31.2714 14.8141 29.7955 14.8123C28.9937 14.8129 28.2003 14.9754 27.4628 15.2901C26.7253 15.6048 26.0589 16.0651 25.5037 16.6436C24.9484 17.2221 24.5156 17.9067 24.2313 18.6565C23.947 19.4062 23.817 20.2057 23.8492 21.0069C20.3428 20.5655 17.1409 18.7911 14.9078 16.0518C14.8222 15.948 14.7129 15.8664 14.589 15.814C14.4652 15.7615 14.3305 15.7397 14.1964 15.7504C14.0624 15.7611 13.9329 15.804 13.8189 15.8755C13.705 15.947 13.61 16.0449 13.542 16.161C13.0307 17.0387 12.7527 18.0328 12.7347 19.0484C12.7167 20.0641 12.9592 21.0674 13.4391 21.9627C13.3214 21.9825 13.2083 22.0238 13.1055 22.0843C12.9794 22.1647 12.8756 22.2755 12.8037 22.4066C12.7318 22.5377 12.694 22.6848 12.6939 22.8343C12.6939 24.6039 13.4812 26.2286 14.7503 27.3325L14.6957 27.3871C14.5999 27.4955 14.534 27.627 14.5045 27.7686C14.475 27.9102 14.4828 28.0571 14.5274 28.1948C14.792 29.0204 15.2339 29.7782 15.822 30.4152C16.4102 31.0521 17.1305 31.5528 17.9324 31.8822C16.2854 32.6858 14.4422 32.9991 12.6221 32.785C12.4351 32.7659 12.2469 32.8095 12.0873 32.9088C11.9276 33.0081 11.8053 33.1576 11.7397 33.3338C11.6767 33.5114 11.6755 33.705 11.7363 33.8833C11.7972 34.0616 11.9165 34.2141 12.0749 34.3161C14.5492 35.9042 17.4277 36.748 20.3677 36.7469C30.0029 36.7469 35.7622 28.9198 35.7622 21.353L35.7606 21.0973C36.6944 20.3683 37.5055 19.4945 38.1632 18.5091C38.2627 18.3601 38.3117 18.183 38.3028 18.0041C38.2939 17.8251 38.2277 17.6537 38.1138 17.5154C37.9999 17.377 37.8445 17.279 37.6706 17.2358C37.4967 17.1927 37.3135 17.2067 37.1482 17.2758ZM34.4276 20.0121C34.3144 20.0935 34.2235 20.2019 34.163 20.3275C34.1026 20.453 34.0745 20.5917 34.0815 20.7309C34.0908 20.9367 34.0955 21.1457 34.0955 21.3515C34.0955 28.0996 28.9614 35.0801 20.3693 35.0801C18.8368 35.0808 17.3152 34.8236 15.8682 34.3192C17.6012 33.9871 19.2293 33.2439 20.6156 32.152C20.7505 32.0456 20.8493 31.9001 20.8985 31.7354C20.9476 31.5707 20.9446 31.3949 20.89 31.2319C20.8355 31.0689 20.7319 30.9268 20.5934 30.825C20.455 30.7232 20.2885 30.6666 20.1167 30.6629C19.4445 30.6501 18.7846 30.4795 18.1905 30.1647C17.5963 29.85 17.0844 29.4001 16.696 28.8512C17.0905 28.8247 17.4772 28.7592 17.8529 28.6578C18.0347 28.6092 18.1947 28.5003 18.3068 28.349C18.4188 28.1977 18.4762 28.0129 18.4697 27.8247C18.4632 27.6366 18.3931 27.4562 18.2709 27.313C18.1487 27.1698 17.9815 27.0723 17.7968 27.0363C17.0375 26.8818 16.3346 26.5239 15.7631 26.0007C15.1916 25.4775 14.7731 24.8087 14.5523 24.066C14.967 24.1705 15.3927 24.2313 15.8183 24.2453C16.1847 24.2438 16.5245 24.0193 16.6384 23.6669C16.7522 23.3145 16.6181 22.9263 16.3078 22.7205C15.5742 22.2317 15.0094 21.5283 14.6905 20.7065C14.3715 19.8846 14.314 18.9844 14.5258 18.1286C17.234 20.9076 20.8909 22.5624 24.7659 22.7625C25.0403 22.7641 25.2804 22.6659 25.4472 22.4647C25.614 22.2636 25.678 21.997 25.6187 21.7413C25.4055 20.8229 25.5009 19.8599 25.8901 19.0012C26.2793 18.1425 26.9407 17.436 27.7718 16.9911C28.603 16.5462 29.5576 16.3877 30.488 16.54C31.4183 16.6924 32.2725 17.1472 32.9184 17.834C33.0152 17.9372 33.1367 18.0142 33.2714 18.0576C33.4061 18.1009 33.5497 18.1093 33.6886 18.0819C33.9458 18.0304 34.1999 17.9712 34.451 17.9026C34.3378 17.9873 34.2202 18.0659 34.0986 18.138C33.9369 18.237 33.8138 18.3882 33.7496 18.5666C33.6853 18.745 33.6837 18.9399 33.7451 19.1193C33.8065 19.2987 33.9271 19.4519 34.0872 19.5535C34.2472 19.6552 34.4371 19.6992 34.6256 19.6785L34.9093 19.6426C34.7531 19.7713 34.5924 19.8946 34.4276 20.0121Z" fill="#FF004D"/>
<path d="M25 0C11.2161 0 0 11.2137 0 25C0 38.7863 11.2161 50 25 50C38.7839 50 50 38.7863 50 25C50 11.2137 38.7839 0 25 0ZM25 48.3348C12.1344 48.3348 1.66823 37.8664 1.66823 25C1.66823 12.1336 12.1344 1.66521 25 1.66521C37.8656 1.66521 48.3318 12.1336 48.3318 25C48.3318 37.8664 37.8656 48.3348 25 48.3348Z" fill="#FF004D"/>
</svg>
