<svg width="74" height="58" viewBox="0 0 74 58" fill="none" xmlns="http://www.w3.org/2000/svg">
<path d="M2.46667 0C1.81247 0 1.18506 0.254613 0.722471 0.707826C0.259881 1.16104 0 1.77573 0 2.41667V55.5833C0 56.2243 0.259881 56.839 0.722471 57.2922C1.18506 57.7454 1.81247 58 2.46667 58C3.12087 58 3.74828 57.7454 4.21087 57.2922C4.67346 56.839 4.93334 56.2243 4.93334 55.5833V2.41667C4.93334 1.77573 4.67346 1.16104 4.21087 0.707826C3.74828 0.254613 3.12087 0 2.46667 0Z" fill="#FF004D"/>
<path d="M12.3333 0C11.6791 0 11.0517 0.254613 10.5891 0.707826C10.1265 1.16104 9.86661 1.77573 9.86661 2.41667V45.9167C9.86661 46.5576 10.1265 47.1723 10.5891 47.6255C11.0517 48.0787 11.6791 48.3333 12.3333 48.3333C12.9875 48.3333 13.6149 48.0787 14.0775 47.6255C14.5401 47.1723 14.7999 46.5576 14.7999 45.9167V2.41667C14.7999 1.77573 14.5401 1.16104 14.0775 0.707826C13.6149 0.254613 12.9875 0 12.3333 0Z" fill="#FF004D"/>
<path d="M22.2 0C21.5458 0 20.9184 0.254613 20.4558 0.707826C19.9932 1.16104 19.7333 1.77573 19.7333 2.41667V45.9167C19.7333 46.5576 19.9932 47.1723 20.4558 47.6255C20.9184 48.0787 21.5458 48.3333 22.2 48.3333C22.8542 48.3333 23.4816 48.0787 23.9442 47.6255C24.4068 47.1723 24.6667 46.5576 24.6667 45.9167V2.41667C24.6667 1.77573 24.4068 1.16104 23.9442 0.707826C23.4816 0.254613 22.8542 0 22.2 0Z" fill="#FF004D"/>
<path d="M32.0667 0C31.4125 0 30.7851 0.254613 30.3225 0.707826C29.8599 1.16104 29.6 1.77573 29.6 2.41667V45.9167C29.6 46.5576 29.8599 47.1723 30.3225 47.6255C30.7851 48.0787 31.4125 48.3333 32.0667 48.3333C32.7209 48.3333 33.3483 48.0787 33.8109 47.6255C34.2735 47.1723 34.5334 46.5576 34.5334 45.9167V2.41667C34.5334 1.77573 34.2735 1.16104 33.8109 0.707826C33.3483 0.254613 32.7209 0 32.0667 0Z" fill="#FF004D"/>
<path d="M41.9333 0C41.2791 0 40.6517 0.254613 40.1891 0.707826C39.7265 1.16104 39.4666 1.77573 39.4666 2.41667V45.9167C39.4666 46.5576 39.7265 47.1723 40.1891 47.6255C40.6517 48.0787 41.2791 48.3333 41.9333 48.3333C42.5875 48.3333 43.2149 48.0787 43.6775 47.6255C44.1401 47.1723 44.4 46.5576 44.4 45.9167V2.41667C44.4 1.77573 44.1401 1.16104 43.6775 0.707826C43.2149 0.254613 42.5875 0 41.9333 0Z" fill="#FF004D"/>
<path d="M51.8 0C51.1458 0 50.5184 0.254613 50.0558 0.707826C49.5932 1.16104 49.3333 1.77573 49.3333 2.41667V45.9167C49.3333 46.5576 49.5932 47.1723 50.0558 47.6255C50.5184 48.0787 51.1458 48.3333 51.8 48.3333C52.4542 48.3333 53.0816 48.0787 53.5442 47.6255C54.0068 47.1723 54.2667 46.5576 54.2667 45.9167V2.41667C54.2667 1.77573 54.0068 1.16104 53.5442 0.707826C53.0816 0.254613 52.4542 0 51.8 0Z" fill="#FF004D"/>
<path d="M61.6667 0C61.0125 0 60.3851 0.254613 59.9225 0.707826C59.4599 1.16104 59.2001 1.77573 59.2001 2.41667V45.9167C59.2001 46.5576 59.4599 47.1723 59.9225 47.6255C60.3851 48.0787 61.0125 48.3333 61.6667 48.3333C62.3209 48.3333 62.9483 48.0787 63.4109 47.6255C63.8735 47.1723 64.1334 46.5576 64.1334 45.9167V2.41667C64.1334 1.77573 63.8735 1.16104 63.4109 0.707826C62.9483 0.254613 62.3209 0 61.6667 0Z" fill="#FF004D"/>
<path d="M71.5333 0C70.8791 0 70.2517 0.254613 69.7891 0.707826C69.3265 1.16104 69.0667 1.77573 69.0667 2.41667V55.5833C69.0667 56.2243 69.3265 56.839 69.7891 57.2922C70.2517 57.7454 70.8791 58 71.5333 58C72.1875 58 72.8149 57.7454 73.2775 57.2922C73.7401 56.839 74 56.2243 74 55.5833V2.41667C74 1.77573 73.7401 1.16104 73.2775 0.707826C72.8149 0.254613 72.1875 0 71.5333 0Z" fill="#FF004D"/>
</svg>
