<svg width="112" height="45" viewBox="0 0 112 45" fill="none" xmlns="http://www.w3.org/2000/svg">
<path d="M17.8172 10.0127C19.1158 9.55856 20.4759 9.32812 21.8447 9.33032C27.9878 9.33032 33.1168 13.9112 34.2916 20L43 18.1351C41.0014 7.78743 32.291 9.8286e-06 21.8447 9.8286e-06C19.5182 -0.0022666 17.2067 0.39091 15 1.16428L17.8172 10.0127Z" fill="#C67E97"/>
<path d="M7.18915 39L13 32.2057C10.4063 29.8291 8.76958 26.3608 8.76958 22.4966C8.76958 18.6354 10.4039 15.1686 12.9961 12.7949L7.1848 6C2.7796 10.036 0 15.9314 0 22.4966C0 29.0659 2.78069 34.9631 7.18915 39Z" fill="#A2536F"/>
<path d="M34.2942 25C33.1145 31.0896 27.9918 35.6646 21.8513 35.6646C20.4422 35.6646 19.0854 35.4258 17.8207 34.9792L15 43.8369C17.1515 44.5913 19.4552 45 21.8513 45C32.286 45 40.9942 37.2207 43 26.876L34.2942 25Z" fill="#FF004D"/>
<path d="M49.9955 32.4335C49.7115 31.9571 49.3254 31.1949 49.0933 30.6341C47.7208 27.3334 47.6551 23.9177 48.8143 20.6388C50.0886 17.0427 52.523 14.2896 55.6684 12.8879C59.6228 11.1251 63.9964 11.4726 67.7864 13.8021C70.194 15.2329 71.9009 17.442 73.1969 20.5653L73.3171 20.869L73.5414 21.4725C73.5775 21.5698 73.613 21.6644 73.6485 21.7551L49.9955 32.4335ZM57.8936 18.1865C55.0854 19.4367 53.6379 22.1655 53.9353 25.365L65.8312 20.0617C63.7855 17.5711 61.123 16.7458 57.8936 18.1865ZM71.9125 32.9101L67.3144 29.7256L67.3079 29.7326L67.0615 29.5607C66.3519 30.7539 65.244 31.7203 63.8466 32.348C61.1876 33.5458 58.7234 33.2379 56.9539 31.6302L56.7912 31.8866C56.7894 31.8836 56.789 31.8814 56.7859 31.8814L53.7682 36.5584C54.5189 37.0988 55.3229 37.555 56.1666 37.9195C59.5004 39.3539 62.9113 39.2874 66.2716 37.7736C68.7022 36.6825 70.6092 35.0187 71.9125 32.9099V32.9101ZM81.9158 6V32.0018L85.8183 33.6402L83.6008 39L79.2931 37.1419C78.326 36.7083 77.6681 36.0443 77.1697 35.2953C76.6934 34.5317 76.3371 33.4836 76.3371 32.0726V6H81.9158ZM92.0258 25.3777C92.028 23.1637 92.9718 21.178 94.4654 19.8285L90.4615 15.2039C87.7459 17.6902 86.0356 21.3234 86.0325 25.3714C86.0281 29.4207 87.7358 33.0576 90.4486 35.5505L94.4479 30.9213C92.9615 29.5666 92.024 27.5868 92.0258 25.3777ZM99.1397 32.7579C98.3513 32.7557 97.592 32.6207 96.884 32.3766L94.9719 38.2657C96.3133 38.7314 97.7186 38.9694 99.1333 38.9703C105.473 38.9766 110.767 34.3171 111.993 28.1229L106.116 26.8797C105.448 30.2371 102.578 32.7602 99.1397 32.7579ZM99.1572 11.7993C97.7442 11.7964 96.3402 12.0305 94.9995 12.4925L96.8949 18.3871C97.6229 18.1375 98.3847 18.0102 99.1515 18.01C102.598 18.0134 105.47 20.5515 106.122 23.9184L112 22.6834C110.79 16.4801 105.502 11.8033 99.1572 11.7993Z" fill="white"/>
</svg>
