<svg width="74" height="58" viewBox="0 0 74 58" fill="none" xmlns="http://www.w3.org/2000/svg">
<g clip-path="url(#clip0_39_76)">
<path d="M13.453 57.7117V53.8729C13.453 52.401 12.5644 51.4416 11.0413 51.4416C10.2799 51.4416 9.45493 51.6975 8.88375 52.5293C8.43975 51.8254 7.80526 51.4416 6.85337 51.4416C6.21859 51.4416 5.58439 51.6333 5.07651 52.3372V51.5695H3.74393V57.7117H5.07651V54.3206C5.07651 53.2332 5.64769 52.7211 6.53627 52.7211C7.42427 52.7211 7.86885 53.297 7.86885 54.3206V57.7117H9.20143V54.3206C9.20143 53.2332 9.83563 52.7211 10.6606 52.7211C11.5492 52.7211 11.9932 53.297 11.9932 54.3206V57.7117H13.453ZM33.1875 51.5695H31.0303V49.7141H29.6977V51.5695H28.492V52.7849H29.6974V55.6004C29.6974 57.0081 30.2686 57.8396 31.7917 57.8396C32.3628 57.8396 32.9971 57.6479 33.4416 57.392L33.0606 56.2401C32.6799 56.496 32.2359 56.5601 31.9186 56.5601C31.2841 56.5601 31.0303 56.1763 31.0303 55.5363V52.7849H33.1875V51.5695ZM44.4829 51.4413C43.7216 51.4413 43.214 51.8254 42.8966 52.3372V51.5695H41.564V57.7117H42.8966V54.2568C42.8966 53.2332 43.3406 52.6572 44.1656 52.6572C44.4194 52.6572 44.7368 52.7214 44.9905 52.7852L45.3712 51.5057C45.1174 51.4416 44.7367 51.4416 44.4829 51.4416V51.4413ZM27.4132 52.0813C26.7784 51.6333 25.8902 51.4416 24.9383 51.4416C23.4155 51.4416 22.4003 52.2093 22.4003 53.4249C22.4003 54.4488 23.1617 55.0245 24.4943 55.2165L25.1288 55.2806C25.8269 55.4083 26.2076 55.6004 26.2076 55.9204C26.2076 56.3681 25.7 56.6881 24.8114 56.6881C23.9231 56.6881 23.225 56.3681 22.7807 56.0483L22.1462 57.0719C22.8443 57.5837 23.7962 57.8396 24.7478 57.8396C26.5247 57.8396 27.5401 57.0081 27.5401 55.8563C27.5401 54.7686 26.7151 54.1926 25.4459 54.0009L24.8114 53.9367C24.2402 53.8726 23.7962 53.745 23.7962 53.3611C23.7962 52.9131 24.2402 52.6572 24.9383 52.6572C25.7 52.6572 26.4613 52.977 26.842 53.169L27.4132 52.0813ZM62.8219 51.4416C62.0603 51.4416 61.5527 51.8254 61.2353 52.3372V51.5695H59.9027V57.7117H61.2353V54.2568C61.2353 53.2332 61.6796 52.6572 62.5043 52.6572C62.7584 52.6572 63.0757 52.7214 63.3295 52.7852L63.7102 51.5057C63.4564 51.4416 63.0757 51.4416 62.8219 51.4416ZM45.8155 54.6406C45.8155 56.496 47.0845 57.8396 49.0519 57.8396C49.9402 57.8396 50.5747 57.6479 51.2091 57.1361L50.5747 56.0483C50.0671 56.4322 49.5595 56.624 48.9883 56.624C47.9095 56.624 47.1481 55.8563 47.1481 54.6406C47.1481 53.4891 47.9095 52.7211 48.9883 52.6572C49.5595 52.6572 50.0671 52.849 50.5747 53.2332L51.2091 52.1454C50.5747 51.6333 49.9402 51.4416 49.0519 51.4416C47.0845 51.4416 45.8155 52.7852 45.8155 54.6406ZM58.1261 54.6406V51.5695H56.7935V52.3372C56.3493 51.7616 55.7148 51.4416 54.8898 51.4416C53.1765 51.4416 51.8439 52.7852 51.8439 54.6406C51.8439 56.496 53.1765 57.8396 54.8898 57.8396C55.7781 57.8396 56.4129 57.5199 56.7935 56.944V57.7117H58.1261V54.6406ZM53.2398 54.6406C53.2398 53.5529 53.9379 52.6572 55.08 52.6572C56.1588 52.6572 56.9204 53.4891 56.9204 54.6406C56.9204 55.7283 56.1588 56.624 55.08 56.624C53.9379 56.5599 53.2398 55.7283 53.2398 54.6406ZM37.3125 51.4416C35.5356 51.4416 34.2663 52.7211 34.2663 54.6406C34.2663 56.5601 35.5353 57.8396 37.3758 57.8396C38.2641 57.8396 39.1526 57.5837 39.8507 57.0081L39.2159 56.0483C38.7084 56.4322 38.0739 56.6881 37.4394 56.6881C36.6144 56.6881 35.7894 56.3042 35.5989 55.2162H40.1045V54.7047C40.1681 52.7211 39.026 51.4416 37.3125 51.4416ZM37.3125 52.5931C38.1372 52.5931 38.7086 53.1052 38.8352 54.065H35.6625C35.7894 53.2332 36.3606 52.5931 37.3125 52.5931ZM70.3731 54.6406V49.1382H69.0405V52.3372C68.5963 51.7616 67.9618 51.4416 67.1368 51.4416C65.4235 51.4416 64.0909 52.7852 64.0909 54.6406C64.0909 56.496 65.4235 57.8396 67.1368 57.8396C68.0254 57.8396 68.6599 57.5199 69.0405 56.944V57.7117H70.3731V54.6406ZM65.4871 54.6406C65.4871 53.5529 66.1849 52.6572 67.3273 52.6572C68.4061 52.6572 69.1674 53.4891 69.1674 54.6406C69.1674 55.7283 68.4061 56.624 67.3273 56.624C66.1849 56.5599 65.4871 55.7283 65.4871 54.6406ZM20.9405 54.6406V51.5695H19.608V52.3372C19.1637 51.7616 18.5292 51.4416 17.7042 51.4416C15.9909 51.4416 14.6583 52.7852 14.6583 54.6406C14.6583 56.496 15.9909 57.8396 17.7042 57.8396C18.5928 57.8396 19.2273 57.5199 19.608 56.944V57.7117H20.9405V54.6406ZM15.9909 54.6406C15.9909 53.5529 16.689 52.6572 17.8311 52.6572C18.9099 52.6572 19.6716 53.4891 19.6716 54.6406C19.6716 55.7283 18.9099 56.624 17.8311 56.624C16.689 56.5599 15.9909 55.7283 15.9909 54.6406Z" fill="white"/>
<path d="M26.969 4.92651H46.9576V41.1404H26.969V4.92651Z" fill="#A2536F"/>
<path d="M28.2382 23.0336C28.2382 15.6757 31.6648 9.14943 36.9315 4.9265C33.0609 1.85542 28.1749 0 22.8446 0C10.2163 0 0 10.301 0 23.0336C0 35.7659 10.2163 46.0672 22.8443 46.0672C28.1746 46.0672 33.0607 44.2117 36.9315 41.1404C31.6648 36.9816 28.2382 30.3914 28.2382 23.0336Z" fill="#FF004D"/>
<path d="M73.9266 23.0336C73.9266 35.7659 63.7102 46.0672 51.0823 46.0672C45.7519 46.0672 40.8659 44.2117 36.9951 41.1404C42.3254 36.9177 45.6886 30.3914 45.6886 23.0336C45.6886 15.6757 42.2618 9.14943 36.9951 4.9265C40.8656 1.85542 45.7519 0 51.0823 0C63.7102 0 73.9266 10.3651 73.9266 23.0336Z" fill="#A3667C"/>
</g>
<defs>
<clipPath id="clip0_39_76">
<rect width="74" height="58" fill="white"/>
</clipPath>
</defs>
</svg>
