<svg width="74" height="58" viewBox="0 0 74 58" fill="none" xmlns="http://www.w3.org/2000/svg">
<path d="M0 0H74V7.25H0V0ZM0 50.75H74V58H0V50.75ZM62.6376 39.5632L62.0524 36.4095H55.4966L54.4539 39.5379L49.1999 39.5524C52.5804 30.827 55.0863 24.3636 56.721 20.1586C57.1482 19.0639 57.9084 18.5056 59.0251 18.5129C59.8795 18.5201 61.2754 18.5201 63.2128 18.5129L67.2727 39.556L62.6376 39.5669V39.5632ZM56.9733 32.0885H61.198L59.6171 24.186L56.9733 32.0885ZM23.1149 18.5092L28.3958 18.5165L20.2323 39.5632L14.8841 39.5596C13.0778 32.0559 11.7492 26.4879 10.9015 22.8665C10.6425 21.7536 10.1279 20.9779 9.13227 20.6117C8.24764 20.2855 6.77436 19.778 4.70909 19.0929V18.5129H13.1485C14.6083 18.5129 15.4593 19.2741 15.7351 20.8329L17.8205 32.7555L23.1149 18.5092ZM35.6512 18.5165L31.4803 39.5596L26.4516 39.5524L30.6225 18.5092L35.6512 18.5165ZM45.8497 18.125C47.3499 18.125 49.247 18.6253 50.3368 19.0929L49.4555 23.4574C48.47 23.0296 46.8487 22.4533 45.4865 22.4786C43.5019 22.5113 42.2775 23.4066 42.2775 24.2658C42.2775 25.6578 44.4034 26.361 46.5965 27.8871C49.0956 29.6271 49.4219 31.1859 49.395 32.8824C49.358 36.4023 46.5965 39.875 40.7673 39.875C38.1066 39.8315 37.148 39.5923 34.9818 38.7658L35.8967 34.2127C38.1033 35.206 39.0417 35.5214 40.9254 35.5214C42.6576 35.5214 44.141 34.771 44.1545 33.4624C44.1612 32.5307 43.6331 32.0704 41.6923 30.9176C39.7515 29.7685 37.0303 28.1771 37.0673 24.9726C37.111 20.8764 40.7269 18.125 45.8497 18.125Z" fill="#FF004D"/>
</svg>
